# Blender v2.82 (sub 7) OBJ File: ''
# www.blender.org
mtllib Capital.mtl
o Capital_Cube.002
v -0.771140 10.354975 0.771140
v -0.869261 10.535992 0.869261
v -0.771140 10.354975 -0.771140
v -0.869261 10.535992 -0.869261
v 0.771140 10.354975 0.771140
v 0.869261 10.535992 0.869261
v 0.771140 10.354975 -0.771140
v 0.869261 10.535992 -0.869261
v -0.895157 10.737229 0.895157
v -0.895157 10.737229 -0.895157
v 0.895157 10.737229 -0.895157
v 0.895157 10.737229 0.895157
vt 0.375000 0.000000
vt 0.625000 0.000000
vt 0.625000 0.250000
vt 0.375000 0.250000
vt 0.625000 0.500000
vt 0.375000 0.500000
vt 0.625000 0.750000
vt 0.375000 0.750000
vt 0.625000 1.000000
vt 0.375000 1.000000
vt 0.125000 0.500000
vt 0.125000 0.750000
vt 0.625000 0.250000
vt 0.625000 0.500000
vt 0.875000 0.500000
vt 0.875000 0.750000
vt 0.625000 0.750000
vt 0.625000 0.000000
vt 0.625000 1.000000
vn -0.8791 -0.4765 0.0000
vn 0.0000 -0.4765 -0.8791
vn 0.8791 -0.4765 0.0000
vn 0.0000 -0.4765 0.8791
vn 0.0000 -1.0000 0.0000
vn 0.0000 -0.1276 -0.9918
vn 0.0000 1.0000 0.0000
vn 0.9918 -0.1276 0.0000
vn -0.9918 -0.1276 0.0000
vn 0.0000 -0.1276 0.9918
usemtl None
s off
f 1/1/1 2/2/1 4/3/1 3/4/1
f 3/4/2 4/3/2 8/5/2 7/6/2
f 7/6/3 8/5/3 6/7/3 5/8/3
f 5/8/4 6/7/4 2/9/4 1/10/4
f 3/11/5 7/6/5 5/8/5 1/12/5
f 8/5/6 4/3/6 10/13/6 11/14/6
f 11/14/7 10/15/7 9/16/7 12/17/7
f 6/7/8 8/5/8 11/14/8 12/17/8
f 4/3/9 2/2/9 9/18/9 10/13/9
f 2/9/10 6/7/10 12/17/10 9/19/10
