# Blender v2.82 (sub 7) OBJ File: ''
# www.blender.org
mtllib ColumnTop.mtl
o ColumntTop_Cylinder.002
v -0.139016 10.107647 -0.698888
v -0.272692 10.107647 -0.658338
v -0.395887 10.107647 -0.592489
v -0.503869 10.107647 -0.503871
v -0.592488 10.107647 -0.395889
v -0.658337 10.107647 -0.272693
v -0.698888 10.107647 -0.139018
v -0.712580 10.107647 -0.000001
v -0.698888 10.107647 0.139017
v -0.658338 10.107647 0.272692
v -0.592489 10.107647 0.395887
v -0.503870 10.107647 0.503869
v -0.395889 10.107647 0.592488
v -0.272693 10.107647 0.658338
v -0.139018 10.107647 0.698887
v -0.000000 10.107647 0.712580
v 0.139017 10.107647 0.698888
v 0.272692 10.107647 0.658338
v 0.395888 10.107647 0.592488
v 0.503870 10.107647 0.503870
v 0.592488 10.107647 0.395888
v 0.658338 10.107647 0.272692
v 0.698888 10.107647 0.139017
v 0.712580 10.107647 -0.000000
v 0.698888 10.107647 -0.139018
v 0.658338 10.107647 -0.272693
v 0.592488 10.107647 -0.395888
v 0.503870 10.107647 -0.503870
v 0.395888 10.107647 -0.592488
v 0.272692 10.107647 -0.658338
v -0.000000 10.107647 -0.712580
v 0.139017 10.107647 -0.698888
v -0.147594 10.199688 -0.742013
v -0.289518 10.199688 -0.698961
v -0.420315 10.199688 -0.629048
v -0.534961 10.199688 -0.534962
v -0.629047 10.199688 -0.420317
v -0.698960 10.199688 -0.289520
v -0.742012 10.199688 -0.147596
v -0.756549 10.199688 -0.000001
v -0.742013 10.199688 0.147595
v -0.698961 10.199688 0.289518
v -0.629048 10.199688 0.420316
v -0.534962 10.199688 0.534961
v -0.420317 10.199688 0.629047
v -0.289519 10.199688 0.698960
v -0.147596 10.199688 0.742012
v -0.000000 10.199688 0.756549
v 0.147595 10.199688 0.742012
v 0.289519 10.199688 0.698960
v 0.420316 10.199688 0.629048
v 0.534961 10.199688 0.534961
v 0.629048 10.199688 0.420316
v 0.698960 10.199688 0.289519
v 0.742012 10.199688 0.147595
v 0.756549 10.199688 -0.000000
v 0.742012 10.199688 -0.147596
v 0.698960 10.199688 -0.289519
v 0.629048 10.199688 -0.420316
v 0.534961 10.199688 -0.534961
v 0.420316 10.199688 -0.629048
v 0.289519 10.199688 -0.698960
v -0.000000 10.199688 -0.756549
v 0.147595 10.199688 -0.742013
v -0.148893 10.275492 -0.748540
v -0.292065 10.275492 -0.705109
v -0.424013 10.275492 -0.634582
v -0.539666 10.275492 -0.539667
v -0.634580 10.275492 -0.424014
v -0.705108 10.275492 -0.292066
v -0.748539 10.275492 -0.148895
v -0.763204 10.275492 -0.000001
v -0.748539 10.275492 0.148893
v -0.705109 10.275492 0.292065
v -0.634581 10.275492 0.424013
v -0.539667 10.275492 0.539666
v -0.424014 10.275492 0.634581
v -0.292066 10.275492 0.705108
v -0.148894 10.275492 0.748539
v -0.000000 10.275492 0.763204
v 0.148893 10.275492 0.748539
v 0.292065 10.275492 0.705109
v 0.424013 10.275492 0.634581
v 0.539667 10.275492 0.539667
v 0.634581 10.275492 0.424013
v 0.705108 10.275492 0.292065
v 0.748539 10.275492 0.148894
v 0.763204 10.275492 -0.000000
v 0.748539 10.275492 -0.148894
v 0.705108 10.275492 -0.292066
v 0.634581 10.275492 -0.424013
v 0.539667 10.275492 -0.539667
v 0.424013 10.275492 -0.634581
v 0.292065 10.275492 -0.705109
v -0.000000 10.275492 -0.763204
v 0.148894 10.275492 -0.748539
v -0.140852 10.368108 -0.708117
v -0.276293 10.368108 -0.667032
v -0.401115 10.368108 -0.600313
v -0.510523 10.368108 -0.510525
v -0.600312 10.368108 -0.401117
v -0.667031 10.368108 -0.276294
v -0.708117 10.368108 -0.140854
v -0.721990 10.368108 -0.000001
v -0.708117 10.368108 0.140853
v -0.667032 10.368108 0.276293
v -0.600313 10.368108 0.401116
v -0.510524 10.368108 0.510523
v -0.401117 10.368108 0.600312
v -0.276294 10.368108 0.667031
v -0.140854 10.368108 0.708117
v -0.000000 10.368108 0.721990
v 0.140853 10.368108 0.708117
v 0.276293 10.368108 0.667032
v 0.401116 10.368108 0.600313
v 0.510524 10.368108 0.510524
v 0.600313 10.368108 0.401116
v 0.667032 10.368108 0.276293
v 0.708117 10.368108 0.140853
v 0.721990 10.368108 -0.000000
v 0.708117 10.368108 -0.140853
v 0.667032 10.368108 -0.276294
v 0.600313 10.368108 -0.401116
v 0.510524 10.368108 -0.510524
v 0.401116 10.368108 -0.600313
v 0.276294 10.368108 -0.667032
v -0.000000 10.368108 -0.721990
v 0.140853 10.368108 -0.708117
vt 0.296822 0.485388
vt 0.341844 0.471731
vt 0.383337 0.449553
vt 0.419706 0.419706
vt 0.449553 0.383337
vt 0.471731 0.341844
vt 0.485388 0.296822
vt 0.490000 0.250000
vt 0.485388 0.203178
vt 0.471731 0.158156
vt 0.449553 0.116663
vt 0.419706 0.080294
vt 0.383337 0.050447
vt 0.341844 0.028269
vt 0.296822 0.014612
vt 0.250000 0.010000
vt 0.203178 0.014612
vt 0.158156 0.028269
vt 0.116663 0.050447
vt 0.080294 0.080294
vt 0.050447 0.116663
vt 0.028269 0.158156
vt 0.014611 0.203179
vt 0.010000 0.250000
vt 0.014612 0.296822
vt 0.028269 0.341844
vt 0.050447 0.383337
vt 0.080295 0.419706
vt 0.116663 0.449553
vt 0.158156 0.471731
vt 0.203179 0.485389
vt 0.250000 0.490000
vt 0.485388 0.203178
vt 0.490000 0.250000
vt 0.490000 0.250000
vt 0.485388 0.203178
vt 0.341844 0.028269
vt 0.296822 0.014612
vt 0.014612 0.296822
vt 0.028269 0.341844
vt 0.203178 0.014612
vt 0.158156 0.028269
vt 0.419706 0.080294
vt 0.383337 0.050447
vt 0.014611 0.203179
vt 0.010000 0.250000
vt 0.250000 0.010000
vt 0.471731 0.158156
vt 0.449553 0.116663
vt 0.471731 0.341844
vt 0.485388 0.296822
vt 0.419706 0.419706
vt 0.449553 0.383337
vt 0.158156 0.471731
vt 0.203179 0.485389
vt 0.341844 0.471731
vt 0.383337 0.449553
vt 0.080295 0.419706
vt 0.116663 0.449553
vt 0.050447 0.383337
vt 0.250000 0.490000
vt 0.028269 0.158156
vt 0.080294 0.080294
vt 0.050447 0.116663
vt 0.296822 0.485388
vt 0.116663 0.050447
vt 0.383337 0.449553
vt 0.341844 0.471731
vt 0.341844 0.471731
vt 0.383337 0.449553
vt 0.419706 0.419706
vt 0.471731 0.341844
vt 0.485388 0.296822
vt 0.116663 0.449553
vt 0.158156 0.471731
vt 0.449553 0.383337
vt 0.203179 0.485389
vt 0.296822 0.485388
vt 0.080295 0.419706
vt 0.050447 0.383337
vt 0.050447 0.116663
vt 0.028269 0.158156
vt 0.028269 0.341844
vt 0.250000 0.490000
vt 0.116663 0.050447
vt 0.080294 0.080294
vt 0.010000 0.250000
vt 0.014612 0.296822
vt 0.203178 0.014612
vt 0.158156 0.028269
vt 0.014611 0.203179
vt 0.296822 0.014612
vt 0.250000 0.010000
vt 0.383337 0.050447
vt 0.341844 0.028269
vt 0.449553 0.116663
vt 0.419706 0.080294
vt 0.471731 0.158156
vt 0.296822 0.485388
vt 0.250000 0.490000
vt 0.203179 0.485389
vt 0.158156 0.471731
vt 0.116663 0.449553
vt 0.080295 0.419706
vt 0.050447 0.383337
vt 0.028269 0.341844
vt 0.014612 0.296822
vt 0.010000 0.250000
vt 0.014611 0.203179
vt 0.028269 0.158156
vt 0.050447 0.116663
vt 0.080294 0.080294
vt 0.116663 0.050447
vt 0.158156 0.028269
vt 0.203178 0.014612
vt 0.250000 0.010000
vt 0.296822 0.014612
vt 0.341844 0.028269
vt 0.383337 0.050447
vt 0.419706 0.080294
vt 0.449553 0.116663
vt 0.471731 0.158156
vt 0.485388 0.203178
vt 0.490000 0.250000
vt 0.485388 0.296822
vt 0.471731 0.341844
vt 0.449553 0.383337
vt 0.419706 0.419706
vn 0.0000 -1.0000 -0.0000
vn 0.9914 -0.0870 0.0976
vn 0.2622 -0.4294 0.8642
vn -0.8642 -0.4294 -0.2622
vn -0.2622 -0.4294 0.8642
vn 0.5729 -0.4294 0.6981
vn -0.8988 -0.4294 0.0885
vn 0.0885 -0.4294 0.8988
vn 0.7965 -0.4294 0.4257
vn 0.4257 -0.4294 0.7965
vn 0.8988 -0.4294 0.0885
vn 0.6981 -0.4294 0.5729
vn 0.8642 -0.4294 -0.2622
vn 0.8642 -0.4294 0.2622
vn 0.6981 -0.4294 -0.5729
vn -0.2622 -0.4294 -0.8642
vn 0.8988 -0.4294 -0.0885
vn 0.4257 -0.4294 -0.7965
vn -0.5729 -0.4294 -0.6981
vn 0.7965 -0.4294 -0.4257
vn -0.7965 -0.4294 -0.4257
vn -0.0885 -0.4294 -0.8988
vn -0.8988 -0.4294 -0.0885
vn 0.5729 -0.4294 -0.6981
vn -0.8642 -0.4294 0.2622
vn -0.4257 -0.4294 -0.7965
vn -0.6981 -0.4294 0.5729
vn 0.2622 -0.4294 -0.8642
vn -0.4257 -0.4294 0.7965
vn -0.6981 -0.4294 -0.5729
vn -0.7965 -0.4294 0.4257
vn -0.0885 -0.4294 0.8988
vn 0.0885 -0.4294 -0.8988
vn -0.5729 -0.4294 0.6981
vn 0.4310 0.4049 -0.8064
vn 0.6320 -0.0870 -0.7701
vn 0.9533 -0.0870 -0.2892
vn -0.4696 -0.0870 -0.8786
vn 0.7701 -0.0870 -0.6320
vn -0.2892 -0.0870 -0.9533
vn 0.2892 -0.0870 -0.9533
vn 0.4696 -0.0870 -0.8786
vn -0.6320 -0.0870 -0.7701
vn -0.7701 -0.0870 -0.6320
vn -0.8786 -0.0870 0.4696
vn -0.8786 -0.0870 -0.4696
vn 0.0976 -0.0870 -0.9914
vn -0.6320 -0.0870 0.7701
vn -0.9914 -0.0870 -0.0976
vn -0.9533 -0.0870 -0.2892
vn -0.2892 -0.0870 0.9533
vn -0.9533 -0.0870 0.2892
vn -0.9914 -0.0870 0.0976
vn 0.0976 -0.0870 0.9914
vn -0.7701 -0.0870 0.6320
vn 0.4696 -0.0870 0.8786
vn -0.4696 -0.0870 0.8786
vn 0.7701 -0.0870 0.6320
vn -0.0976 -0.0870 0.9914
vn 0.9533 -0.0870 0.2892
vn 0.2892 -0.0870 0.9533
vn 0.9914 -0.0870 -0.0976
vn 0.6320 -0.0870 0.7701
vn 0.8786 -0.0870 -0.4696
vn 0.8786 -0.0870 0.4696
vn -0.0976 -0.0870 -0.9914
vn 0.0000 1.0000 -0.0000
vn -0.5801 0.4049 -0.7068
vn -0.7068 0.4049 -0.5801
vn -0.8064 0.4049 0.4310
vn -0.8064 0.4049 -0.4310
vn 0.0896 0.4049 -0.9099
vn -0.5801 0.4049 0.7068
vn -0.9099 0.4049 -0.0896
vn -0.8750 0.4049 -0.2654
vn -0.2654 0.4049 0.8750
vn -0.8750 0.4049 0.2654
vn -0.9099 0.4049 0.0896
vn 0.0896 0.4049 0.9099
vn -0.7068 0.4049 0.5801
vn 0.4310 0.4049 0.8064
vn -0.4310 0.4049 0.8064
vn 0.7068 0.4049 0.5801
vn -0.0896 0.4049 0.9099
vn 0.8750 0.4049 0.2654
vn 0.2654 0.4049 0.8750
vn 0.9099 0.4049 -0.0896
vn 0.5801 0.4049 0.7068
vn 0.8064 0.4049 -0.4310
vn 0.8064 0.4049 0.4310
vn -0.0896 0.4049 -0.9099
vn 0.9099 0.4049 0.0896
vn 0.5801 0.4049 -0.7068
vn 0.8750 0.4049 -0.2654
vn -0.4310 0.4049 -0.8064
vn 0.7068 0.4049 -0.5801
vn -0.2654 0.4049 -0.8750
vn 0.2654 0.4049 -0.8750
usemtl None
s off
f 32/1/1 30/2/1 29/3/1 28/4/1 27/5/1 26/6/1 25/7/1 24/8/1 23/9/1 22/10/1 21/11/1 20/12/1 19/13/1 18/14/1 17/15/1 16/16/1 15/17/1 14/18/1 13/19/1 12/20/1 11/21/1 10/22/1 9/23/1 8/24/1 7/25/1 6/26/1 5/27/1 4/28/1 3/29/1 2/30/1 1/31/1 31/32/1
f 55/33/2 56/34/2 88/35/2 87/36/2
f 17/15/3 18/14/3 50/37/3 49/38/3
f 6/26/4 7/25/4 39/39/4 38/40/4
f 14/18/5 15/17/5 47/41/5 46/42/5
f 19/13/6 20/12/6 52/43/6 51/44/6
f 8/24/7 9/23/7 41/45/7 40/46/7
f 16/16/8 17/15/8 49/38/8 48/47/8
f 21/11/9 22/10/9 54/48/9 53/49/9
f 18/14/10 19/13/10 51/44/10 50/37/10
f 23/9/11 24/8/11 56/34/11 55/33/11
f 20/12/12 21/11/12 53/49/12 52/43/12
f 25/7/13 26/6/13 58/50/13 57/51/13
f 22/10/14 23/9/14 55/33/14 54/48/14
f 27/5/15 28/4/15 60/52/15 59/53/15
f 1/31/16 2/30/16 34/54/16 33/55/16
f 24/8/17 25/7/17 57/51/17 56/34/17
f 29/3/18 30/2/18 62/56/18 61/57/18
f 3/29/19 4/28/19 36/58/19 35/59/19
f 26/6/20 27/5/20 59/53/20 58/50/20
f 5/27/21 6/26/21 38/40/21 37/60/21
f 31/32/22 1/31/22 33/55/22 63/61/22
f 7/25/23 8/24/23 40/46/23 39/39/23
f 28/4/24 29/3/24 61/57/24 60/52/24
f 9/23/25 10/22/25 42/62/25 41/45/25
f 2/30/26 3/29/26 35/59/26 34/54/26
f 11/21/27 12/20/27 44/63/27 43/64/27
f 30/2/28 32/1/28 64/65/28 62/56/28
f 13/19/29 14/18/29 46/42/29 45/66/29
f 4/28/30 5/27/30 37/60/30 36/58/30
f 10/22/31 11/21/31 43/64/31 42/62/31
f 15/17/32 16/16/32 48/47/32 47/41/32
f 32/1/33 31/32/33 63/61/33 64/65/33
f 12/20/34 13/19/34 45/66/34 44/63/34
f 93/67/35 94/68/35 126/69/35 125/70/35
f 60/52/36 61/57/36 93/67/36 92/71/36
f 57/51/37 58/50/37 90/72/37 89/73/37
f 34/54/38 35/59/38 67/74/38 66/75/38
f 59/53/39 60/52/39 92/71/39 91/76/39
f 33/55/40 34/54/40 66/75/40 65/77/40
f 62/56/41 64/65/41 96/78/41 94/68/41
f 61/57/42 62/56/42 94/68/42 93/67/42
f 35/59/43 36/58/43 68/79/43 67/74/43
f 36/58/44 37/60/44 69/80/44 68/79/44
f 42/62/45 43/64/45 75/81/45 74/82/45
f 37/60/46 38/40/46 70/83/46 69/80/46
f 64/65/47 63/61/47 95/84/47 96/78/47
f 44/63/48 45/66/48 77/85/48 76/86/48
f 39/39/49 40/46/49 72/87/49 71/88/49
f 38/40/50 39/39/50 71/88/50 70/83/50
f 46/42/51 47/41/51 79/89/51 78/90/51
f 41/45/52 42/62/52 74/82/52 73/91/52
f 40/46/53 41/45/53 73/91/53 72/87/53
f 48/47/54 49/38/54 81/92/54 80/93/54
f 43/64/55 44/63/55 76/86/55 75/81/55
f 50/37/56 51/44/56 83/94/56 82/95/56
f 45/66/57 46/42/57 78/90/57 77/85/57
f 52/43/58 53/49/58 85/96/58 84/97/58
f 47/41/59 48/47/59 80/93/59 79/89/59
f 54/48/60 55/33/60 87/36/60 86/98/60
f 49/38/61 50/37/61 82/95/61 81/92/61
f 56/34/62 57/51/62 89/73/62 88/35/62
f 51/44/63 52/43/63 84/97/63 83/94/63
f 58/50/64 59/53/64 91/76/64 90/72/64
f 53/49/65 54/48/65 86/98/65 85/96/65
f 63/61/66 33/55/66 65/77/66 95/84/66
f 128/99/67 127/100/67 97/101/67 98/102/67 99/103/67 100/104/67 101/105/67 102/106/67 103/107/67 104/108/67 105/109/67 106/110/67 107/111/67 108/112/67 109/113/67 110/114/67 111/115/67 112/116/67 113/117/67 114/118/67 115/119/67 116/120/67 117/121/67 118/122/67 119/123/67 120/124/67 121/125/67 122/126/67 123/127/67 124/128/67 125/70/67 126/69/67
f 67/74/68 68/79/68 100/104/68 99/103/68
f 68/79/69 69/80/69 101/105/69 100/104/69
f 74/82/70 75/81/70 107/111/70 106/110/70
f 69/80/71 70/83/71 102/106/71 101/105/71
f 96/78/72 95/84/72 127/100/72 128/99/72
f 76/86/73 77/85/73 109/113/73 108/112/73
f 71/88/74 72/87/74 104/108/74 103/107/74
f 70/83/75 71/88/75 103/107/75 102/106/75
f 78/90/76 79/89/76 111/115/76 110/114/76
f 73/91/77 74/82/77 106/110/77 105/109/77
f 72/87/78 73/91/78 105/109/78 104/108/78
f 80/93/79 81/92/79 113/117/79 112/116/79
f 75/81/80 76/86/80 108/112/80 107/111/80
f 82/95/81 83/94/81 115/119/81 114/118/81
f 77/85/82 78/90/82 110/114/82 109/113/82
f 84/97/83 85/96/83 117/121/83 116/120/83
f 79/89/84 80/93/84 112/116/84 111/115/84
f 86/98/85 87/36/85 119/123/85 118/122/85
f 81/92/86 82/95/86 114/118/86 113/117/86
f 88/35/87 89/73/87 121/125/87 120/124/87
f 83/94/88 84/97/88 116/120/88 115/119/88
f 90/72/89 91/76/89 123/127/89 122/126/89
f 85/96/90 86/98/90 118/122/90 117/121/90
f 95/84/91 65/77/91 97/101/91 127/100/91
f 87/36/92 88/35/92 120/124/92 119/123/92
f 92/71/93 93/67/93 125/70/93 124/128/93
f 89/73/94 90/72/94 122/126/94 121/125/94
f 66/75/95 67/74/95 99/103/95 98/102/95
f 91/76/96 92/71/96 124/128/96 123/127/96
f 65/77/97 66/75/97 98/102/97 97/101/97
f 94/68/98 96/78/98 128/99/98 126/69/98
