# Blender v2.82 (sub 7) OBJ File: ''
# www.blender.org
mtllib ColumnMiddle.mtl
o ColumnMiddle_Cylinder.001
v -0.139016 10.107647 -0.698888
v -0.272692 10.107647 -0.658338
v -0.395887 10.107647 -0.592489
v -0.503869 10.107647 -0.503871
v -0.592488 10.107647 -0.395889
v -0.658337 10.107647 -0.272693
v -0.698888 10.107647 -0.139018
v -0.712580 10.107647 -0.000001
v -0.698888 10.107647 0.139017
v -0.658338 10.107647 0.272692
v -0.592489 10.107647 0.395887
v -0.503870 10.107647 0.503869
v -0.395889 10.107647 0.592488
v -0.272693 10.107647 0.658338
v -0.139018 10.107647 0.698887
v -0.000000 10.107647 0.712580
v 0.139017 10.107647 0.698888
v 0.272692 10.107647 0.658338
v 0.395888 10.107647 0.592488
v 0.503870 10.107647 0.503870
v 0.592488 10.107647 0.395888
v 0.658338 10.107647 0.272692
v 0.698888 10.107647 0.139017
v 0.712580 10.107647 -0.000000
v 0.698888 10.107647 -0.139018
v 0.658338 10.107647 -0.272693
v 0.592488 10.107647 -0.395888
v 0.503870 10.107647 -0.503870
v 0.395888 10.107647 -0.592488
v 0.272692 10.107647 -0.658338
v -0.000000 10.107647 -0.712580
v 0.139017 10.107647 -0.698888
v 0.155225 1.870489 -0.780368
v 0.000000 1.870489 -0.795657
v 0.304485 1.870489 -0.735091
v 0.442043 1.870489 -0.661564
v 0.562614 1.870489 -0.562614
v 0.661564 1.870489 -0.442043
v 0.735091 1.870489 -0.304485
v 0.780368 1.870489 -0.155225
v 0.795657 1.870489 -0.000000
v 0.780368 1.870489 0.155225
v 0.735091 1.870489 0.304484
v 0.661564 1.870489 0.442043
v 0.562614 1.870489 0.562614
v 0.442043 1.870489 0.661564
v 0.304485 1.870489 0.735091
v 0.155225 1.870489 0.780368
v -0.000000 1.870489 0.795657
v -0.155225 1.870489 0.780368
v -0.304485 1.870489 0.735091
v -0.442044 1.870489 0.661564
v -0.562615 1.870489 0.562614
v -0.661565 1.870489 0.442043
v -0.735091 1.870489 0.304484
v -0.780368 1.870489 0.155224
v -0.795657 1.870489 -0.000001
v -0.780368 1.870489 -0.155226
v -0.735090 1.870489 -0.304485
v -0.661564 1.870489 -0.442044
v -0.562613 1.870489 -0.562615
v -0.442042 1.870489 -0.661565
v -0.304484 1.870489 -0.735091
v -0.155224 1.870489 -0.780369
vt 0.471731 0.341844
vt 0.449553 0.383337
vt 0.449553 0.383337
vt 0.471731 0.341844
vt 0.471731 0.158156
vt 0.485388 0.203178
vt 0.485388 0.203178
vt 0.471731 0.158156
vt 0.296822 0.485388
vt 0.341844 0.471731
vt 0.383337 0.449553
vt 0.419706 0.419706
vt 0.485388 0.296822
vt 0.490000 0.250000
vt 0.449553 0.116663
vt 0.419706 0.080294
vt 0.383337 0.050447
vt 0.341844 0.028269
vt 0.296822 0.014612
vt 0.250000 0.010000
vt 0.203178 0.014612
vt 0.158156 0.028269
vt 0.116663 0.050447
vt 0.080294 0.080294
vt 0.050447 0.116663
vt 0.028269 0.158156
vt 0.014611 0.203179
vt 0.010000 0.250000
vt 0.014612 0.296822
vt 0.028269 0.341844
vt 0.050447 0.383337
vt 0.080295 0.419706
vt 0.116663 0.449553
vt 0.158156 0.471731
vt 0.203179 0.485389
vt 0.250000 0.490000
vt 0.050447 0.383337
vt 0.080295 0.419706
vt 0.158156 0.028269
vt 0.116663 0.050447
vt 0.250000 0.490000
vt 0.296822 0.485388
vt 0.203179 0.485389
vt 0.383337 0.050447
vt 0.341844 0.028269
vt 0.419706 0.419706
vt 0.028269 0.341844
vt 0.203178 0.014612
vt 0.419706 0.080294
vt 0.158156 0.471731
vt 0.014612 0.296822
vt 0.383337 0.449553
vt 0.449553 0.116663
vt 0.250000 0.010000
vt 0.028269 0.158156
vt 0.014611 0.203179
vt 0.010000 0.250000
vt 0.116663 0.449553
vt 0.490000 0.250000
vt 0.341844 0.471731
vt 0.485388 0.296822
vt 0.296822 0.014612
vt 0.080294 0.080294
vt 0.050447 0.116663
vn 0.8819 0.0100 -0.4714
vn 0.9569 0.0100 0.2903
vn 0.0000 -1.0000 0.0000
vn -0.7730 0.0100 -0.6344
vn -0.4714 0.0100 0.8819
vn 0.0980 0.0100 -0.9951
vn -0.0980 0.0100 -0.9951
vn 0.4714 0.0100 0.8819
vn 0.7730 0.0100 -0.6344
vn -0.8819 0.0100 -0.4714
vn -0.2903 0.0100 0.9569
vn 0.6344 0.0100 0.7730
vn -0.2903 0.0100 -0.9569
vn -0.9569 0.0100 -0.2903
vn 0.6344 0.0100 -0.7730
vn 0.7730 0.0100 0.6344
vn -0.0980 0.0100 0.9951
vn -0.9569 0.0100 0.2903
vn -0.9951 0.0100 -0.0980
vn -0.4714 0.0100 -0.8819
vn 0.9951 0.0100 0.0980
vn 0.8819 0.0100 0.4714
vn 0.4714 0.0100 -0.8819
vn 0.9951 0.0100 -0.0980
vn -0.9951 0.0100 0.0980
vn 0.0980 0.0100 0.9951
vn -0.7730 0.0100 0.6344
vn 0.0000 1.0000 0.0000
vn -0.6344 0.0100 -0.7730
vn 0.9569 0.0100 -0.2903
vn -0.8819 0.0100 0.4714
vn 0.2903 0.0100 -0.9569
vn -0.6344 0.0100 0.7730
vn 0.2903 0.0100 0.9569
usemtl None
s off
f 39/1/1 38/2/1 27/3/1 26/4/1
f 43/5/2 42/6/2 23/7/2 22/8/2
f 33/9/3 35/10/3 36/11/3 37/12/3 38/2/3 39/1/3 40/13/3 41/14/3 42/6/3 43/5/3 44/15/3 45/16/3 46/17/3 47/18/3 48/19/3 49/20/3 50/21/3 51/22/3 52/23/3 53/24/3 54/25/3 55/26/3 56/27/3 57/28/3 58/29/3 59/30/3 60/31/3 61/32/3 62/33/3 63/34/3 64/35/3 34/36/3
f 61/32/4 60/31/4 5/37/4 4/38/4
f 52/23/5 51/22/5 14/39/5 13/40/5
f 33/9/6 34/36/6 31/41/6 32/42/6
f 34/36/7 64/35/7 1/43/7 31/41/7
f 47/18/8 46/17/8 19/44/8 18/45/8
f 38/2/9 37/12/9 28/46/9 27/3/9
f 60/31/10 59/30/10 6/47/10 5/37/10
f 51/22/11 50/21/11 15/48/11 14/39/11
f 46/17/12 45/16/12 20/49/12 19/44/12
f 64/35/13 63/34/13 2/50/13 1/43/13
f 59/30/14 58/29/14 7/51/14 6/47/14
f 37/12/15 36/11/15 29/52/15 28/46/15
f 45/16/16 44/15/16 21/53/16 20/49/16
f 50/21/17 49/20/17 16/54/17 15/48/17
f 56/27/18 55/26/18 10/55/18 9/56/18
f 58/29/19 57/28/19 8/57/19 7/51/19
f 63/34/20 62/33/20 3/58/20 2/50/20
f 42/6/21 41/14/21 24/59/21 23/7/21
f 44/15/22 43/5/22 22/8/22 21/53/22
f 36/11/23 35/10/23 30/60/23 29/52/23
f 41/14/24 40/13/24 25/61/24 24/59/24
f 57/28/25 56/27/25 9/56/25 8/57/25
f 49/20/26 48/19/26 17/62/26 16/54/26
f 54/25/27 53/24/27 12/63/27 11/64/27
f 32/42/28 31/41/28 1/43/28 2/50/28 3/58/28 4/38/28 5/37/28 6/47/28 7/51/28 8/57/28 9/56/28 10/55/28 11/64/28 12/63/28 13/40/28 14/39/28 15/48/28 16/54/28 17/62/28 18/45/28 19/44/28 20/49/28 21/53/28 22/8/28 23/7/28 24/59/28 25/61/28 26/4/28 27/3/28 28/46/28 29/52/28 30/60/28
f 62/33/29 61/32/29 4/38/29 3/58/29
f 40/13/30 39/1/30 26/4/30 25/61/30
f 55/26/31 54/25/31 11/64/31 10/55/31
f 35/10/32 33/9/32 32/42/32 30/60/32
f 53/24/33 52/23/33 13/40/33 12/63/33
f 48/19/34 47/18/34 18/45/34 17/62/34
