# Blender v2.82 (sub 7) OBJ File: ''
# www.blender.org
mtllib Pedestal.mtl
o Pedestal_Cube.001
v -1.223650 -0.119326 1.223650
v -1.139225 0.706795 1.139225
v -1.223650 -0.119326 -1.223650
v -1.139225 0.706795 -1.139225
v 1.223650 -0.119326 1.223650
v 1.139225 0.706795 1.139225
v 1.223650 -0.119326 -1.223650
v 1.139225 0.706795 -1.139225
v -0.994865 0.706795 0.994865
v -0.994865 0.706795 -0.994865
v 0.994865 0.706795 -0.994865
v 0.994865 0.706795 0.994865
v -0.883302 1.418395 0.883302
v -0.883302 1.418395 -0.883302
v 0.883302 1.418395 -0.883302
v 0.883302 1.418395 0.883302
vt 0.375000 0.000000
vt 0.625000 0.000000
vt 0.625000 0.250000
vt 0.375000 0.250000
vt 0.625000 0.500000
vt 0.375000 0.500000
vt 0.625000 0.750000
vt 0.375000 0.750000
vt 0.625000 1.000000
vt 0.375000 1.000000
vt 0.125000 0.500000
vt 0.125000 0.750000
vt 0.625000 0.000000
vt 0.625000 0.250000
vt 0.625000 0.500000
vt 0.625000 0.250000
vt 0.625000 0.500000
vt 0.625000 0.750000
vt 0.625000 1.000000
vt 0.875000 0.500000
vt 0.875000 0.750000
vt 0.625000 0.750000
vt 0.625000 0.000000
vt 0.625000 1.000000
vn -0.9948 0.1017 0.0000
vn 0.0000 0.1017 -0.9948
vn 0.9948 0.1017 0.0000
vn 0.0000 0.1017 0.9948
vn 0.0000 -1.0000 0.0000
vn 0.0000 1.0000 0.0000
vn 0.0000 0.1549 -0.9879
vn 0.9879 0.1549 0.0000
vn -0.9879 0.1549 0.0000
vn 0.0000 0.1549 0.9879
usemtl None
s off
f 1/1/1 2/2/1 4/3/1 3/4/1
f 3/4/2 4/3/2 8/5/2 7/6/2
f 7/6/3 8/5/3 6/7/3 5/8/3
f 5/8/4 6/7/4 2/9/4 1/10/4
f 3/11/5 7/6/5 5/8/5 1/12/5
f 4/3/6 2/2/6 9/13/6 10/14/6
f 11/15/7 10/14/7 14/16/7 15/17/7
f 2/9/6 6/7/6 12/18/6 9/19/6
f 8/5/6 4/3/6 10/14/6 11/15/6
f 6/7/6 8/5/6 11/15/6 12/18/6
f 15/17/6 14/20/6 13/21/6 16/22/6
f 12/18/8 11/15/8 15/17/8 16/22/8
f 10/14/9 9/13/9 13/23/9 14/16/9
f 9/19/10 12/18/10 16/22/10 13/24/10
