# Blender v2.82 (sub 7) OBJ File: ''
# www.blender.org
mtllib WallWithSquare.mtl
o MiddleWall_Cube.005
v -2.000000 0.250000 0.250000
v -2.000000 3.750000 0.250000
v -2.000000 0.250000 0.000000
v -2.000000 3.750000 0.000000
v 2.000000 0.250000 0.250000
v 2.000000 3.750000 0.250000
v 2.000000 0.250000 0.000000
v 2.000000 3.750000 0.000000
v -0.746625 3.480986 0.000000
v -0.746625 0.519014 0.000000
v 0.746625 0.519014 0.000000
v 0.746625 3.480986 0.000000
v -0.746625 3.480986 0.195795
v -0.746625 0.519014 0.195795
v 0.746625 0.519014 0.195795
v 0.746625 3.480986 0.195795
vn -1.0000 0.0000 0.0000
vn 0.0000 0.0000 -1.0000
vn 1.0000 0.0000 0.0000
vn 0.0000 0.0000 1.0000
vn 0.0000 -1.0000 0.0000
vn 0.0000 1.0000 0.0000
usemtl None
s off
f 1//1 2//1 4//1 3//1
f 4//2 8//2 12//2 9//2
f 7//3 8//3 6//3 5//3
f 5//4 6//4 2//4 1//4
f 3//5 7//5 5//5 1//5
f 8//6 4//6 2//6 6//6
f 9//5 12//5 16//5 13//5
f 3//2 4//2 9//2 10//2
f 8//2 7//2 11//2 12//2
f 7//2 3//2 10//2 11//2
f 14//2 13//2 16//2 15//2
f 10//3 9//3 13//3 14//3
f 12//1 11//1 15//1 16//1
f 11//6 10//6 14//6 15//6
o TopWall_Cube.006
v -2.000000 3.697387 0.250000
v -2.000000 4.028782 0.250000
v -2.000000 3.739406 -0.003538
v -2.000000 4.028782 -0.141934
v 2.000000 3.697387 0.250000
v 2.000000 4.028782 0.250000
v 2.000000 3.739406 -0.003538
v 2.000000 4.028782 -0.141934
v -2.000000 4.361525 0.250000
v -2.000000 4.361525 -0.141934
v 2.000000 4.361525 -0.141934
v 2.000000 4.361525 0.250000
vn -1.0000 0.0000 0.0000
vn 0.0000 -0.4315 -0.9021
vn 1.0000 0.0000 0.0000
vn 0.0000 0.0000 1.0000
vn 0.0000 -0.9865 -0.1635
vn 0.0000 1.0000 0.0000
vn 0.0000 0.0000 -1.0000
usemtl None
s off
f 17//7 18//7 20//7 19//7
f 19//8 20//8 24//8 23//8
f 23//9 24//9 22//9 21//9
f 21//10 22//10 18//10 17//10
f 19//11 23//11 21//11 17//11
f 20//7 18//7 25//7 26//7
f 27//12 26//12 25//12 28//12
f 18//10 22//10 28//10 25//10
f 24//13 20//13 26//13 27//13
f 22//9 24//9 27//9 28//9
o BottomWall_Cube.007
v -2.000000 -0.250000 0.250000
v -2.000000 0.250000 0.250000
v -2.000000 -0.250000 -0.250000
v -2.000000 0.250000 -0.250000
v 2.000000 -0.250000 0.250000
v 2.000000 0.250000 0.250000
v 2.000000 -0.250000 -0.250000
v 2.000000 0.250000 -0.250000
vn -1.0000 0.0000 0.0000
vn 0.0000 0.0000 -1.0000
vn 1.0000 0.0000 0.0000
vn 0.0000 0.0000 1.0000
vn 0.0000 -1.0000 0.0000
vn 0.0000 1.0000 0.0000
usemtl None
s off
f 29//14 30//14 32//14 31//14
f 31//15 32//15 36//15 35//15
f 35//16 36//16 34//16 33//16
f 33//17 34//17 30//17 29//17
f 31//18 35//18 33//18 29//18
f 36//19 32//19 30//19 34//19
o RightColumn_Cube.008
v 1.500000 -0.250000 0.297603
v 1.500000 4.372459 0.297603
v 1.146447 -0.250000 -0.055950
v 1.146447 4.372459 -0.055950
v 1.853553 -0.250000 -0.055950
v 1.853553 4.372459 -0.055950
v 1.500000 -0.250000 -0.409504
v 1.500000 4.372459 -0.409504
vn -0.7071 0.0000 0.7071
vn -0.7071 0.0000 -0.7071
vn 0.7071 0.0000 -0.7071
vn 0.7071 0.0000 0.7071
vn 0.0000 -1.0000 0.0000
vn 0.0000 1.0000 0.0000
usemtl None
s off
f 37//20 38//20 40//20 39//20
f 39//21 40//21 44//21 43//21
f 43//22 44//22 42//22 41//22
f 41//23 42//23 38//23 37//23
f 39//24 43//24 41//24 37//24
f 44//25 40//25 38//25 42//25
o LeftColumn_Cube.009
v -1.500000 -0.250000 0.297603
v -1.500000 4.372459 0.297603
v -1.853553 -0.250000 -0.055950
v -1.853553 4.372459 -0.055950
v -1.146447 -0.250000 -0.055950
v -1.146447 4.372459 -0.055950
v -1.500000 -0.250000 -0.409504
v -1.500000 4.372459 -0.409504
vn -0.7071 0.0000 0.7071
vn -0.7071 0.0000 -0.7071
vn 0.7071 0.0000 -0.7071
vn 0.7071 0.0000 0.7071
vn 0.0000 -1.0000 0.0000
vn 0.0000 1.0000 0.0000
usemtl None
s off
f 45//26 46//26 48//26 47//26
f 47//27 48//27 52//27 51//27
f 51//28 52//28 50//28 49//28
f 49//29 50//29 46//29 45//29
f 47//30 51//30 49//30 45//30
f 52//31 48//31 46//31 50//31
